<svg xmlns="http://www.w3.org/2000/svg" viewBox="0 0 512 512" width="512" height="512">
  <defs>
    <linearGradient id="spiralGradient" x1="0%" y1="0%" x2="100%" y2="100%">
      <stop offset="0%" style="stop-color:#FF9500;stop-opacity:1" />
      <stop offset="50%" style="stop-color:#FF8C00;stop-opacity:1" />
      <stop offset="100%" style="stop-color:#FF7F00;stop-opacity:1" />
    </linearGradient>
  </defs>
  
  <!-- Тройная спираль (трискелион) -->
  <g fill="url(#spiralGradient)" stroke="#FFFFFF" stroke-width="8" stroke-linejoin="round" stroke-linecap="round">
    
    <!-- Первая спираль (верхняя) -->
    <path d="M256 50 
             C 320 50, 370 100, 370 164
             C 370 228, 320 278, 256 278
             C 192 278, 142 228, 142 164
             C 142 135, 157 110, 180 95
             C 200 82, 225 80, 245 90
             C 260 98, 270 115, 270 133
             C 270 150, 260 167, 245 175
             C 235 180, 222 180, 212 175" 
          fill="url(#spiralGradient)" />
    
    <!-- Вторая спираль (левая нижняя) -->
    <g transform="rotate(120 256 256)">
      <path d="M256 50 
               C 320 50, 370 100, 370 164
               C 370 228, 320 278, 256 278
               C 192 278, 142 228, 142 164
               C 142 135, 157 110, 180 95
               C 200 82, 225 80, 245 90
               C 260 98, 270 115, 270 133
               C 270 150, 260 167, 245 175
               C 235 180, 222 180, 212 175" 
            fill="url(#spiralGradient)" />
    </g>
    
    <!-- Третья спираль (правая нижняя) -->
    <g transform="rotate(240 256 256)">
      <path d="M256 50 
               C 320 50, 370 100, 370 164
               C 370 228, 320 278, 256 278
               C 192 278, 142 228, 142 164
               C 142 135, 157 110, 180 95
               C 200 82, 225 80, 245 90
               C 260 98, 270 115, 270 133
               C 270 150, 260 167, 245 175
               C 235 180, 222 180, 212 175" 
            fill="url(#spiralGradient)" />
    </g>
    
  </g>
  
  <!-- Центральный элемент для связки -->
  <circle cx="256" cy="256" r="25" fill="url(#spiralGradient)" stroke="#FFFFFF" stroke-width="4"/>
</svg>